<svg width="30.857910" height="30.857422" viewBox="0 0 30.8579 30.8574" fill="none" xmlns="http://www.w3.org/2000/svg" xmlns:xlink="http://www.w3.org/1999/xlink">
	<desc>
			Created with Pixso.
	</desc>
	<defs/>
	<path id="Vector" d="M30.2729 3.40625C30.4583 3.22119 30.6052 3.00146 30.7057 2.75977C30.806 2.51758 30.8578 2.2583 30.8579 1.99658C30.858 1.73486 30.8066 1.47559 30.7065 1.2334C30.6064 0.991211 30.4597 0.771484 30.2747 0.585938C30.0896 0.400879 29.8699 0.253906 29.6281 0.15332C29.3861 0.0532227 29.1268 0.00146484 28.865 0.00146484C28.6031 0.000976562 28.3438 0.0522461 28.1018 0.152344C27.8597 0.252441 27.6399 0.399414 27.4546 0.584473L15.4287 12.6104L3.40625 0.584473C3.0321 0.210449 2.52454 0 1.99536 0C1.46619 0 0.958618 0.210449 0.584473 0.584473C0.210205 0.958496 0 1.46631 0 1.99512C0 2.52441 0.210205 3.03223 0.584473 3.40625L12.6104 15.4287L0.584473 27.4512C0.39917 27.6362 0.252197 27.8564 0.151855 28.0986C0.0516357 28.3403 0 28.6001 0 28.8618C0 29.124 0.0516357 29.3833 0.151855 29.6255C0.252197 29.8677 0.39917 30.0879 0.584473 30.2729C0.958618 30.647 1.46619 30.8574 1.99536 30.8574C2.25745 30.8574 2.51685 30.8057 2.75891 30.7056C3.0011 30.605 3.22095 30.458 3.40625 30.2729L15.4287 18.2471L27.4546 30.2729C27.8287 30.6465 28.3361 30.8564 28.865 30.856C29.3939 30.856 29.901 30.6455 30.2747 30.271C30.6484 29.897 30.8583 29.3896 30.8579 28.8608C30.8575 28.332 30.6472 27.8247 30.2729 27.4512L18.2471 15.4287L30.2729 3.40625Z" fill="#DA0000" fill-opacity="1.000000" fill-rule="evenodd"/>
</svg>
