<svg width="52.000000" height="52.000000" viewBox="0 0 52 52" fill="none" xmlns="http://www.w3.org/2000/svg" xmlns:xlink="http://www.w3.org/1999/xlink">
	<desc>
			Created with Pixso.
	</desc>
	<defs>
		<clipPath id="clip220_1529">
			<rect id="radix-icons:cross-2" width="52.000000" height="52.000000" fill="white" fill-opacity="0"/>
		</clipPath>
	</defs>
	<rect id="radix-icons:cross-2" width="52.000000" height="52.000000" fill="#FFFFFF" fill-opacity="0"/>
	<g clip-path="url(#clip220_1529)">
		<path id="Vector" d="M40.8442 13.9775C41.0295 13.7925 41.1765 13.5728 41.277 13.3311C41.3773 13.0889 41.4291 12.8296 41.4292 12.5679C41.4293 12.3062 41.3779 12.0469 41.2778 11.8047C41.1777 11.5625 41.031 11.3428 40.8459 11.1572C40.6609 10.9722 40.4412 10.8252 40.1993 10.7246C39.9574 10.6245 39.6981 10.5728 39.4363 10.5728C39.1744 10.5723 38.915 10.6235 38.6731 10.7236C38.431 10.8237 38.2112 10.9707 38.0259 11.1558L26 23.1816L13.9775 11.1558C13.6034 10.7817 13.0958 10.5713 12.5667 10.5713C12.0375 10.5713 11.5299 10.7817 11.1558 11.1558C10.7815 11.5298 10.5713 12.0376 10.5713 12.5664C10.5713 13.0957 10.7815 13.6035 11.1558 13.9775L23.1816 26L11.1558 38.0225C10.9705 38.2075 10.8235 38.4277 10.7231 38.6699C10.6229 38.9116 10.5713 39.1714 10.5713 39.4331C10.5713 39.6953 10.6229 39.9546 10.7231 40.1968C10.8235 40.439 10.9705 40.6592 11.1558 40.8442C11.5299 41.2183 12.0375 41.4287 12.5667 41.4287C12.8287 41.4287 13.0881 41.377 13.3302 41.2769C13.5724 41.1763 13.7922 41.0293 13.9775 40.8442L26 28.8184L38.0259 40.8442C38.4 41.2178 38.9073 41.4277 39.4363 41.4272C39.9652 41.4272 40.4723 41.2168 40.8459 40.8423C41.2197 40.4683 41.4296 39.9609 41.4292 39.4321C41.4288 38.9033 41.2185 38.396 40.8442 38.0225L28.8184 26L40.8442 13.9775Z" fill="#DA0000" fill-opacity="1.000000" fill-rule="evenodd"/>
	</g>
</svg>
