<svg width="21.666687" height="17.333252" viewBox="0 0 21.6667 17.3333" fill="none" xmlns="http://www.w3.org/2000/svg" xmlns:xlink="http://www.w3.org/1999/xlink">
	<desc>
			Created with Pixso.
	</desc>
	<defs/>
	<path id="Vector" d="M19.5 0L2.16669 0C0.974976 0 0 0.975098 0 2.16675L0 15.1667C0 16.3584 0.974976 17.3333 2.16669 17.3333L19.5 17.3333C20.6917 17.3333 21.6667 16.3584 21.6667 15.1667L21.6667 2.16675C21.6667 0.975098 20.6917 0 19.5 0ZM19.0667 4.60425L11.9817 9.03491C11.2775 9.47925 10.3892 9.47925 9.685 9.03491L2.59998 4.60425C2.49139 4.54321 2.39624 4.46069 2.32037 4.36206C2.24451 4.26318 2.18951 4.1499 2.15863 4.0293C2.12775 3.90869 2.1217 3.78296 2.14081 3.65991C2.15997 3.53662 2.20386 3.4187 2.2699 3.31323C2.33594 3.20752 2.42267 3.11646 2.52496 3.04517C2.6272 2.97412 2.74286 2.92456 2.86487 2.89941C2.98688 2.87427 3.11273 2.87402 3.2348 2.89893C3.35687 2.92383 3.4726 2.97314 3.57501 3.04419L10.8333 7.58325L18.0917 3.04419C18.1941 2.97314 18.3098 2.92383 18.4319 2.89893C18.554 2.87402 18.6798 2.87427 18.8018 2.89941C18.9238 2.92456 19.0394 2.97412 19.1417 3.04517C19.244 3.11646 19.3307 3.20752 19.3968 3.31323C19.4628 3.4187 19.5067 3.53662 19.5258 3.65991C19.545 3.78296 19.5389 3.90869 19.5081 4.0293C19.4772 4.1499 19.4222 4.26318 19.3463 4.36206C19.2704 4.46069 19.1753 4.54321 19.0667 4.60425Z" fill="#522E18" fill-opacity="1.000000" fill-rule="nonzero"/>
</svg>
