<svg width="26.000000" height="26.000000" viewBox="0 0 26 26" fill="none" xmlns="http://www.w3.org/2000/svg" xmlns:xlink="http://www.w3.org/1999/xlink">
	<desc>
			Created with Pixso.
	</desc>
	<defs>
		<clipPath id="clip218_750">
			<rect id="tabler:map-pin-filled" width="26.000000" height="26.000000" fill="white" fill-opacity="0"/>
		</clipPath>
	</defs>
	<rect id="tabler:map-pin-filled" width="26.000000" height="26.000000" fill="#FFFFFF" fill-opacity="0"/>
	<g clip-path="url(#clip218_750)">
		<path id="Vector" d="M19.8944 5.02197C21.6844 6.81177 22.7082 9.22754 22.7492 11.7585C22.7903 14.2896 21.8453 16.7373 20.1143 18.5842L19.8944 18.8118L15.2978 23.4072C14.7146 23.99 13.9316 24.3296 13.1075 24.3567C12.2834 24.3838 11.4797 24.0967 10.8594 23.5535L10.7034 23.4072L6.10571 18.8105C4.27722 16.9822 3.25 14.5022 3.25 11.9163C3.25 9.33032 4.27722 6.85059 6.10571 5.02197C7.9342 3.1936 10.4142 2.16626 13.0001 2.16626C15.5859 2.16626 18.0659 3.1936 19.8944 5.02197ZM13.0001 8.66626C12.5732 8.66626 12.1506 8.75049 11.7563 8.91382C11.3621 9.07715 11.0037 9.31641 10.702 9.61816C10.4001 9.91992 10.1608 10.2783 9.99744 10.6726C9.83411 11.0669 9.75006 11.4895 9.75006 11.9163C9.75006 12.343 9.83411 12.7656 9.99744 13.1602C10.1608 13.5544 10.4001 13.9126 10.702 14.2144C11.0037 14.5161 11.3621 14.7556 11.7563 14.9189C12.1506 15.0823 12.5732 15.1663 13.0001 15.1663C13.862 15.1663 14.6887 14.824 15.2982 14.2144C15.9077 13.605 16.2501 12.7783 16.2501 11.9163C16.2501 11.0544 15.9077 10.2278 15.2982 9.61816C14.6887 9.00879 13.862 8.66626 13.0001 8.66626Z" fill="#522E18" fill-opacity="1.000000" fill-rule="nonzero"/>
	</g>
</svg>
