<svg width="19.500000" height="19.500000" viewBox="0 0 19.5 19.5" fill="none" xmlns="http://www.w3.org/2000/svg" xmlns:xlink="http://www.w3.org/1999/xlink">
	<desc>
			Created with Pixso.
	</desc>
	<defs/>
	<path id="Vector" d="M3.92166 8.43921C5.48166 11.5049 7.995 14.0076 11.0608 15.5784L13.4442 13.1951C13.7367 12.9026 14.17 12.8049 14.5492 12.9351C15.7625 13.3359 17.0733 13.5525 18.4167 13.5525C19.0125 13.5525 19.5 14.04 19.5 14.6357L19.5 18.4167C19.5 19.0125 19.0125 19.5 18.4167 19.5C8.24417 19.5 0 11.2559 0 1.08325C0 0.487549 0.487488 0 1.08334 0L4.875 0C5.47083 0 5.95834 0.487549 5.95834 1.08325C5.95834 2.4375 6.17499 3.73755 6.57584 4.95093C6.69501 5.33008 6.60834 5.75244 6.30499 6.05591L3.92166 8.43921Z" fill="#522E18" fill-opacity="1.000000" fill-rule="nonzero"/>
</svg>
