<?xml version="1.0" encoding="utf-8"?><svg viewBox="0 0 52 52" xmlns="http://www.w3.org/2000/svg" xmlns:xlink="http://www.w3.org/1999/xlink"><style>:root>svg{display:none}:root>svg:target{display:block}</style><svg viewBox="0 0 12.486 12.485" id="arrow" xmlns="http://www.w3.org/2000/svg"><path d="M.941 11.544L11.548.937m-10.017 0h10.017v10.018"/></svg><svg viewBox="0 0 30.858 30.857" id="close" xmlns="http://www.w3.org/2000/svg"><path d="M30.273 3.406a1.996 1.996 0 00.002-2.82A2.002 2.002 0 0028.865 0a1.987 1.987 0 00-1.41.583L15.429 12.61 3.406.584A1.996 1.996 0 00.584 3.406L12.61 15.43.584 27.45a1.992 1.992 0 000 2.822 1.996 1.996 0 002.822 0L15.43 18.247l12.026 12.026a1.994 1.994 0 002.818-2.822L18.247 15.43 30.273 3.406z" fill-rule="evenodd"/></svg><svg viewBox="0 0 52 52" id="cross" xmlns="http://www.w3.org/2000/svg"><defs><clipPath id="ca"><path fill-opacity="0" d="M0 0h52v52H0z"/></clipPath></defs><path d="M0 0h52v52H0z"/><g clip-path="url(#ca)"><path d="M40.844 13.977a1.997 1.997 0 00.002-2.82 2.001 2.001 0 00-1.41-.584 1.986 1.986 0 00-1.41.583L26 23.182 13.977 11.156a1.996 1.996 0 10-2.821 2.821L23.182 26 11.156 38.023a1.994 1.994 0 001.41 3.406 1.998 1.998 0 001.411-.585L26 28.818l12.026 12.026a1.993 1.993 0 102.818-2.822L28.818 26l12.026-12.023z" fill-rule="evenodd"/></g></svg><svg viewBox="0 0 21.667 17.333" id="mail" xmlns="http://www.w3.org/2000/svg"><path d="M19.5 0H2.167A2.173 2.173 0 000 2.167v13c0 1.191.975 2.166 2.167 2.166H19.5a2.173 2.173 0 002.167-2.166v-13A2.173 2.173 0 0019.5 0zm-.433 4.604l-7.085 4.43a2.145 2.145 0 01-2.297 0L2.6 4.605a.925.925 0 01-.46-.944.919.919 0 011.435-.616l7.258 4.54 7.259-4.54a.918.918 0 011.305.27.918.918 0 01-.33 1.29z"/></svg><svg viewBox="0 0 26 26" id="map" xmlns="http://www.w3.org/2000/svg"><defs><clipPath id="ea"><path fill-opacity="0" d="M0 0h26v26H0z"/></clipPath></defs><path d="M0 0h26v26H0z"/><g clip-path="url(#ea)"><path d="M19.894 5.022a9.75 9.75 0 01.22 13.562l-.22.228-4.596 4.595a3.25 3.25 0 01-4.439.146l-.156-.146-4.597-4.596A9.75 9.75 0 1119.894 5.022zM13 8.666a3.25 3.25 0 100 6.5 3.25 3.25 0 000-6.5z"/></g></svg><svg viewBox="0 0 24 24" id="menu" xmlns="http://www.w3.org/2000/svg"><path d="M3.75 10.5A.75.75 0 013 9.75V3.752a.75.75 0 01.75-.75h6a.75.75 0 01.75.75V9.75a.75.75 0 01-.75.75h-6zm10.5 0a.75.75 0 01-.75-.75V3.752a.75.75 0 01.75-.75h5.998a.75.75 0 01.75.75V9.75a.75.75 0 01-.75.75H14.25zM3.75 21a.75.75 0 01-.75-.75v-6a.75.75 0 01.75-.75h6a.75.75 0 01.75.75v6a.75.75 0 01-.75.75h-6zm10.5 0a.75.75 0 01-.75-.75v-6a.75.75 0 01.75-.75h5.998a.75.75 0 01.75.75v6a.75.75 0 01-.75.75H14.25z"/></svg><svg viewBox="0 0 19.5 19.5" id="phone" xmlns="http://www.w3.org/2000/svg"><path d="M3.922 8.44a16.412 16.412 0 007.139 7.138l2.383-2.383c.293-.292.726-.39 1.105-.26 1.213.4 2.524.617 3.868.617.595 0 1.083.488 1.083 1.084v3.78c0 .596-.488 1.084-1.083 1.084C8.244 19.5 0 11.256 0 1.083 0 .488.487 0 1.083 0h3.792c.596 0 1.083.488 1.083 1.083a12.3 12.3 0 00.618 3.868c.119.38.032.801-.271 1.105L3.922 8.439z"/></svg><svg viewBox="0 0 20 20" id="up" xmlns="http://www.w3.org/2000/svg"><defs><clipPath id="ha"><path fill-opacity="0" d="M0 0h20v20H0z"/></clipPath></defs><path d="M0 0h20v20H0z"/><g clip-path="url(#ha)"><path d="M2.045 17.955l15.91-15.91m-15.026 0h15.026v15.026"/></g></svg></svg>